<svg xmlns="http://www.w3.org/2000/svg" xmlns:xlink="http://www.w3.org/1999/xlink" version="1.1" x="0px" y="0px" viewBox="0 0 100 125" enable-background="new 0 0 100 100" xml:space="preserve"><g><path fill="#ffffff" d="M65.447,22.5l-3.998-4h-1.408H59H24v59h4v4h48v-59H65.447z M61,20.88l8.615,8.621H61V20.88z M28,75.5h-2v-55h33v11h11v44   H30l0,0H28L28,75.5z M74,79.5H30v-2h42v-46v-1.066v-1.378L67.445,24.5H74V79.5z"/><rect fill="#ffffff" x="34" y="36.5" width="28" height="2"/><rect fill="#ffffff" x="34" y="44.502" width="28" height="2"/><rect fill="#ffffff" x="34" y="52.502" width="28" height="2"/><rect fill="#ffffff" x="34" y="60.502" width="28" height="2"/></g></svg>